<?xml version="1.0" encoding="utf-8"?>
<svg width="33px" height="17px" viewBox="0 0 33 17" version="1.1" xmlns:xlink="http://www.w3.org/1999/xlink" xmlns="http://www.w3.org/2000/svg">
  <defs>
    <linearGradient x1="0" y1="0" x2="1" y2="1" id="gradient_1">
      <stop offset="0%" stop-color="#00F179" />
      <stop offset="100%" stop-color="#12584F" />
    </linearGradient>
  </defs>
  <g id="battery" transform="matrix(-3.8027724E-06 -1 1 -3.8027724E-06 0.50006104 16.108032)">
    <path d="M2.999 3.20267L12.6089 3.20267Q12.7563 3.20267 12.9029 3.21711Q13.0495 3.23155 13.194 3.26029Q13.3385 3.28904 13.4795 3.3318Q13.6205 3.37457 13.7566 3.43095Q13.8927 3.48733 14.0226 3.55679Q14.1526 3.62624 14.2751 3.70809Q14.3976 3.78994 14.5115 3.88341Q14.6254 3.97687 14.7295 4.08105Q14.8337 4.18523 14.9272 4.29912Q15.0206 4.41301 15.1025 4.53551Q15.1843 4.65801 15.2538 4.78795Q15.3232 4.91788 15.3796 5.054Q15.436 5.19012 15.4788 5.3311Q15.5216 5.47209 15.5503 5.61659Q15.579 5.76109 15.5935 5.90771Q15.6079 6.05434 15.6079 6.20167L15.6079 28.7439Q15.6079 28.8912 15.5935 29.0378Q15.579 29.1844 15.5503 29.3289Q15.5216 29.4734 15.4788 29.6144Q15.436 29.7554 15.3796 29.8915Q15.3232 30.0276 15.2538 30.1576Q15.1843 30.2875 15.1025 30.41Q15.0206 30.5325 14.9272 30.6464Q14.8337 30.7603 14.7295 30.8645Q14.6254 30.9687 14.5115 31.0621Q14.3976 31.1556 14.2751 31.2374Q14.1526 31.3193 14.0226 31.3887Q13.8927 31.4582 13.7566 31.5146Q13.6205 31.571 13.4795 31.6137Q13.3385 31.6565 13.194 31.6852Q13.0495 31.714 12.9029 31.7284Q12.7563 31.7429 12.6089 31.7429L2.999 31.7429Q2.85167 31.7429 2.70505 31.7284Q2.55842 31.714 2.41392 31.6852Q2.26942 31.6565 2.12844 31.6137Q1.98745 31.571 1.85133 31.5146Q1.71522 31.4582 1.58528 31.3887Q1.45535 31.3193 1.33284 31.2374Q1.21034 31.1556 1.09645 31.0621Q0.982566 30.9687 0.878387 30.8645Q0.774208 30.7603 0.680742 30.6464Q0.587276 30.5325 0.505423 30.41Q0.42357 30.2875 0.354118 30.1576Q0.284667 30.0276 0.228285 29.8915Q0.171904 29.7554 0.129136 29.6144Q0.0863679 29.4734 0.0576249 29.3289Q0.028882 29.1844 0.014441 29.0378Q0 28.8912 0 28.7439L0 6.20167Q0 6.05434 0.014441 5.90771Q0.028882 5.76109 0.0576249 5.61659Q0.0863679 5.47209 0.129136 5.3311Q0.171904 5.19012 0.228285 5.054Q0.284667 4.91788 0.354118 4.78795Q0.42357 4.65801 0.505423 4.53551Q0.587276 4.41301 0.680742 4.29912Q0.774208 4.18523 0.878387 4.08105Q0.982566 3.97687 1.09645 3.88341Q1.21034 3.78994 1.33284 3.70809Q1.45535 3.62624 1.58528 3.55679Q1.71522 3.48733 1.85133 3.43095Q1.98745 3.37457 2.12844 3.3318Q2.26942 3.28904 2.41392 3.26029Q2.55842 3.23155 2.70505 3.21711Q2.85167 3.20267 2.999 3.20267Z" id="Rectangle" fill="none" fill-rule="evenodd" stroke="#FFFFFF" stroke-width="1" />
    <path d="M6.68821 0.0811462L8.91991 0.0811462Q8.99654 0.0811462 9.0728 0.0886571Q9.14906 0.0961679 9.22421 0.111117Q9.29937 0.126067 9.37269 0.14831Q9.44602 0.170554 9.51682 0.199878Q9.58761 0.229202 9.65519 0.265324Q9.72277 0.301447 9.78648 0.344019Q9.8502 0.386591 9.90943 0.435203Q9.96867 0.483815 10.0229 0.537999Q10.077 0.592183 10.1256 0.651417Q10.1743 0.710651 10.2168 0.774364Q10.2594 0.838078 10.2955 0.905657Q10.3316 0.973237 10.361 1.04403Q10.3903 1.11483 10.4125 1.18815Q10.4348 1.26148 10.4497 1.33664Q10.4647 1.41179 10.4722 1.48805Q10.4797 1.56431 10.4797 1.64094L10.4797 3.20273L5.12842 3.20273L5.12842 1.64094Q5.12842 1.56431 5.13593 1.48805Q5.14344 1.41179 5.15839 1.33664Q5.17334 1.26148 5.19558 1.18815Q5.21783 1.11483 5.24715 1.04403Q5.27647 0.973237 5.3126 0.905657Q5.34872 0.838078 5.39129 0.774364Q5.43386 0.710651 5.48247 0.651417Q5.53109 0.592183 5.58527 0.537999Q5.63945 0.483815 5.69869 0.435203Q5.75792 0.386591 5.82164 0.344019Q5.88535 0.301447 5.95293 0.265324Q6.02051 0.229202 6.0913 0.199878Q6.1621 0.170554 6.23543 0.14831Q6.30875 0.126067 6.38391 0.111117Q6.45906 0.0961679 6.53532 0.0886571Q6.61158 0.0811462 6.68821 0.0811462L6.68821 0.0811462Z" id="Rectangle-2" fill="none" fill-rule="evenodd" stroke="#FFFFFF" stroke-width="1" />
    <path d="M13.9356 13.6817L13.9356 27.5142Q13.9356 27.6124 13.926 27.7101Q13.9164 27.8079 13.8972 27.9042Q13.878 28.0005 13.8495 28.0945Q13.821 28.1885 13.7834 28.2792Q13.7459 28.3699 13.6996 28.4565Q13.6533 28.5431 13.5987 28.6248Q13.5442 28.7064 13.4819 28.7824Q13.4196 28.8583 13.3501 28.9277Q13.2807 28.9972 13.2048 29.0595Q13.1288 29.1218 13.0472 29.1763Q12.9655 29.2309 12.8789 29.2772Q12.7923 29.3235 12.7016 29.361Q12.6109 29.3986 12.5169 29.4271Q12.4229 29.4556 12.3266 29.4748Q12.2303 29.494 12.1325 29.5036Q12.0348 29.5132 11.9366 29.5132L3.67124 29.5132Q3.57304 29.5132 3.47531 29.5036Q3.37757 29.494 3.28126 29.4748Q3.18494 29.4556 3.09096 29.4271Q2.99699 29.3986 2.90626 29.361Q2.81553 29.3235 2.72892 29.2772Q2.64231 29.2309 2.56066 29.1763Q2.479 29.1218 2.40309 29.0595Q2.32718 28.9972 2.25773 28.9277Q2.18829 28.8583 2.12599 28.7824Q2.06369 28.7064 2.00913 28.6248Q1.95457 28.5431 1.90828 28.4565Q1.86199 28.3699 1.82441 28.2792Q1.78682 28.1885 1.75832 28.0945Q1.72981 28.0005 1.71065 27.9042Q1.69149 27.8079 1.68187 27.7101Q1.67224 27.6124 1.67224 27.5142L1.67224 18.1243Q1.67224 17.9895 1.69035 17.8559Q1.70846 17.7223 1.74434 17.5923Q1.78023 17.4623 1.83325 17.3383Q1.88626 17.2144 1.95545 17.0986Q2.02464 16.9829 2.10874 16.8775Q2.19284 16.7721 2.29033 16.679Q2.38782 16.5858 2.49694 16.5066Q2.60606 16.4274 2.72483 16.3636L10.9902 11.9209Q11.047 11.8904 11.1057 11.8636Q11.1643 11.8368 11.2246 11.8138Q11.2848 11.7908 11.3464 11.7718Q11.4081 11.7528 11.4708 11.7377Q11.5335 11.7227 11.597 11.7117Q11.6606 11.7008 11.7247 11.694Q11.7888 11.6871 11.8533 11.6844Q11.9177 11.6817 11.9822 11.6832Q12.0467 11.6847 12.1109 11.6903Q12.1751 11.6959 12.2389 11.7057Q12.3026 11.7154 12.3656 11.7293Q12.4286 11.7431 12.4906 11.761Q12.5525 11.7789 12.6132 11.8007Q12.6739 11.8225 12.7331 11.8482Q12.7922 11.8739 12.8496 11.9034Q12.907 11.9328 12.9623 11.9659Q13.0177 11.999 13.0708 12.0356Q13.1239 12.0722 13.1745 12.1121Q13.2251 12.152 13.2731 12.1952Q13.3211 12.2383 13.3661 12.2844Q13.4112 12.3305 13.4532 12.3794Q13.4952 12.4284 13.534 12.4799Q13.5728 12.5314 13.6082 12.5854Q13.6435 12.6393 13.6753 12.6954Q13.7072 12.7515 13.7353 12.8095Q13.7634 12.8675 13.7878 12.9272Q13.8121 12.987 13.8326 13.0481Q13.853 13.1093 13.8694 13.1717Q13.8859 13.234 13.8983 13.2973Q13.9107 13.3606 13.919 13.4245Q13.9273 13.4885 13.9315 13.5529Q13.9356 13.6172 13.9356 13.6817Z" id="New-shape" fill="url(#gradient_1)" fill-rule="evenodd" stroke="none" />
    <path d="M6.56757 0L9.40537 0L9.40537 1.78376L6.56757 1.78376L6.56757 0Z" id="Rectangle-3" fill="#FFFFFF" fill-rule="evenodd" stroke="#FFFFFF" stroke-width="1" />
  </g>
</svg>