<svg width="178" height="45" viewBox="0 0 178 45" fill="none" xmlns="http://www.w3.org/2000/svg">
<path d="M31.016 31V14.416H34.496L39.08 28.336L43.688 14.416H47.168V31H45.248V16.456H44.888L40.16 30.4H38.024L33.296 16.456H32.936V31H31.016ZM54.5557 31.24C53.5317 31.24 52.7477 31.032 52.2037 30.616C51.6597 30.2 51.2837 29.552 51.0757 28.672C50.8837 27.792 50.7877 26.656 50.7877 25.264V19H52.6357V25.264C52.6357 26.32 52.6837 27.16 52.7797 27.784C52.8917 28.408 53.1237 28.864 53.4757 29.152C53.8277 29.424 54.3557 29.56 55.0597 29.56C55.7637 29.56 56.4037 29.464 56.9797 29.272C57.5557 29.08 58.0197 28.888 58.3717 28.696V19H60.2197V31H58.3717V30.16C57.8597 30.448 57.2997 30.704 56.6917 30.928C56.0997 31.136 55.3877 31.24 54.5557 31.24ZM67.4251 31.24C67.0571 31.24 66.6091 31.216 66.0811 31.168C65.5691 31.12 65.0571 31.064 64.5451 31C64.0331 30.92 63.5771 30.848 63.1771 30.784L63.2731 29.176C63.6731 29.224 64.1211 29.28 64.6171 29.344C65.1291 29.408 65.6251 29.464 66.1051 29.512C66.5851 29.544 66.9691 29.56 67.2571 29.56C67.9131 29.56 68.4571 29.504 68.8891 29.392C69.3211 29.264 69.6491 29.056 69.8731 28.768C70.0971 28.48 70.2091 28.072 70.2091 27.544C70.2091 27.144 70.1211 26.832 69.9451 26.608C69.7851 26.384 69.4731 26.2 69.0091 26.056C68.5611 25.912 67.9051 25.776 67.0411 25.648C66.1451 25.504 65.3931 25.328 64.7851 25.12C64.1931 24.896 63.7531 24.568 63.4651 24.136C63.1771 23.704 63.0331 23.088 63.0331 22.288C63.0331 21.392 63.2411 20.688 63.6571 20.176C64.0731 19.664 64.6091 19.304 65.2651 19.096C65.9371 18.872 66.6331 18.76 67.3531 18.76C67.8011 18.76 68.2891 18.784 68.8171 18.832C69.3611 18.88 69.8891 18.944 70.4011 19.024C70.9131 19.088 71.3531 19.152 71.7211 19.216L71.6731 20.824C71.2891 20.76 70.8411 20.704 70.3291 20.656C69.8171 20.592 69.3051 20.544 68.7931 20.512C68.2811 20.464 67.8331 20.44 67.4491 20.44C66.9691 20.44 66.5371 20.496 66.1531 20.608C65.7691 20.704 65.4651 20.88 65.2411 21.136C65.0171 21.392 64.9051 21.752 64.9051 22.216C64.9051 22.568 64.9851 22.856 65.1451 23.08C65.3051 23.288 65.6091 23.464 66.0571 23.608C66.5051 23.752 67.1531 23.896 68.0011 24.04C68.9931 24.2 69.7851 24.4 70.3771 24.64C70.9851 24.88 71.4251 25.216 71.6971 25.648C71.9691 26.08 72.1051 26.688 72.1051 27.472C72.1051 28.88 71.6891 29.864 70.8571 30.424C70.0251 30.968 68.8811 31.24 67.4251 31.24ZM75.0048 31V13.792H76.8528V31H75.0048ZM80.4624 31V19H82.3104V31H80.4624ZM80.4624 16.36V14.2H82.3104V16.36H80.4624ZM85.7593 31V19H87.6073V19.84C87.9913 19.616 88.5113 19.384 89.1673 19.144C89.8233 18.888 90.4553 18.76 91.0633 18.76C91.8633 18.76 92.5033 18.856 92.9833 19.048C93.4793 19.24 93.8793 19.552 94.1833 19.984C94.5033 19.808 94.8953 19.624 95.3593 19.432C95.8233 19.24 96.3193 19.08 96.8473 18.952C97.3913 18.824 97.9193 18.76 98.4313 18.76C99.5193 18.76 100.351 18.952 100.927 19.336C101.519 19.704 101.927 20.32 102.151 21.184C102.375 22.048 102.487 23.2 102.487 24.64V31H100.639V24.712C100.639 23.672 100.575 22.84 100.447 22.216C100.335 21.592 100.103 21.144 99.7513 20.872C99.3993 20.584 98.8633 20.44 98.1432 20.44C97.5033 20.44 96.8713 20.536 96.2473 20.728C95.6393 20.92 95.1673 21.112 94.8313 21.304C94.9433 21.72 95.0153 22.24 95.0473 22.864C95.0953 23.472 95.1193 24.104 95.1193 24.76V31H93.2713V24.808C93.2713 23.72 93.2153 22.864 93.1033 22.24C92.9913 21.6 92.7513 21.144 92.3833 20.872C92.0313 20.584 91.4953 20.44 90.7753 20.44C90.1673 20.44 89.5673 20.536 88.9753 20.728C88.3833 20.92 87.9273 21.112 87.6073 21.304V31H85.7593Z" fill="black"/>
<path d="M109.854 31.24C109.502 31.24 109.078 31.224 108.582 31.192C108.102 31.176 107.614 31.144 107.118 31.096C106.622 31.048 106.182 31.008 105.798 30.976V13.792H107.67V19.576C108.054 19.4 108.574 19.224 109.23 19.048C109.886 18.856 110.518 18.76 111.126 18.76C112.214 18.76 113.078 18.968 113.718 19.384C114.374 19.784 114.838 20.432 115.11 21.328C115.398 22.208 115.542 23.368 115.542 24.808C115.542 26.408 115.366 27.68 115.014 28.624C114.678 29.552 114.094 30.224 113.262 30.64C112.446 31.04 111.31 31.24 109.854 31.24ZM109.83 29.56C110.918 29.56 111.726 29.4 112.254 29.08C112.798 28.744 113.158 28.224 113.334 27.52C113.526 26.816 113.622 25.912 113.622 24.808C113.622 23.784 113.542 22.952 113.382 22.312C113.222 21.672 112.942 21.2 112.542 20.896C112.158 20.592 111.622 20.44 110.934 20.44C110.342 20.44 109.742 20.52 109.134 20.68C108.526 20.824 108.038 20.968 107.67 21.112V29.44C108.006 29.472 108.39 29.504 108.822 29.536C109.27 29.552 109.606 29.56 109.83 29.56ZM121.094 31.24C119.99 31.24 119.15 30.928 118.574 30.304C117.998 29.68 117.71 28.768 117.71 27.568C117.71 26.784 117.846 26.144 118.118 25.648C118.39 25.152 118.798 24.776 119.342 24.52C119.902 24.248 120.59 24.08 121.406 24.016L125.102 23.656V22.624C125.102 21.808 124.918 21.232 124.55 20.896C124.198 20.56 123.67 20.392 122.966 20.392C122.566 20.392 122.086 20.408 121.526 20.44C120.982 20.472 120.438 20.512 119.894 20.56C119.35 20.608 118.87 20.656 118.454 20.704L118.358 19.288C118.742 19.208 119.206 19.128 119.75 19.048C120.294 18.968 120.862 18.904 121.454 18.856C122.046 18.792 122.59 18.76 123.086 18.76C123.998 18.76 124.742 18.904 125.318 19.192C125.894 19.464 126.31 19.888 126.566 20.464C126.838 21.024 126.974 21.744 126.974 22.624V28.696C127.006 29.048 127.142 29.304 127.382 29.464C127.638 29.624 127.958 29.728 128.342 29.776L128.27 31.24C127.918 31.24 127.598 31.216 127.31 31.168C127.022 31.136 126.75 31.08 126.494 31C126.286 30.92 126.086 30.824 125.894 30.712C125.718 30.6 125.542 30.464 125.366 30.304C125.062 30.432 124.67 30.568 124.19 30.712C123.726 30.856 123.222 30.976 122.678 31.072C122.15 31.184 121.622 31.24 121.094 31.24ZM121.406 29.68C121.838 29.68 122.286 29.64 122.75 29.56C123.214 29.48 123.654 29.384 124.07 29.272C124.486 29.16 124.83 29.056 125.102 28.96V25.048L121.622 25.384C120.902 25.448 120.382 25.656 120.062 26.008C119.758 26.36 119.606 26.864 119.606 27.52C119.606 28.192 119.758 28.72 120.062 29.104C120.366 29.488 120.814 29.68 121.406 29.68ZM134.461 31.264C133.629 31.264 132.965 31.136 132.469 30.88C131.989 30.624 131.645 30.184 131.437 29.56C131.229 28.92 131.125 28.024 131.125 26.872V20.608H129.421V19H131.125V15.328H132.973V19H136.741V20.608H132.973V26.32C132.973 27.168 133.005 27.832 133.069 28.312C133.149 28.776 133.309 29.104 133.549 29.296C133.789 29.488 134.165 29.584 134.677 29.584C134.837 29.584 135.045 29.576 135.301 29.56C135.557 29.544 135.813 29.528 136.069 29.512C136.341 29.48 136.581 29.456 136.789 29.44L136.909 31C136.557 31.048 136.141 31.104 135.661 31.168C135.181 31.232 134.781 31.264 134.461 31.264ZM142.875 31.264C142.043 31.264 141.379 31.136 140.883 30.88C140.403 30.624 140.059 30.184 139.851 29.56C139.643 28.92 139.539 28.024 139.539 26.872V20.608H137.835V19H139.539V15.328H141.387V19H145.155V20.608H141.387V26.32C141.387 27.168 141.419 27.832 141.483 28.312C141.563 28.776 141.723 29.104 141.963 29.296C142.203 29.488 142.579 29.584 143.091 29.584C143.251 29.584 143.459 29.576 143.715 29.56C143.971 29.544 144.227 29.528 144.483 29.512C144.755 29.48 144.995 29.456 145.203 29.44L145.323 31C144.971 31.048 144.555 31.104 144.075 31.168C143.595 31.232 143.195 31.264 142.875 31.264ZM151.601 31.24C150.401 31.24 149.449 31.008 148.745 30.544C148.057 30.08 147.561 29.392 147.257 28.48C146.953 27.568 146.801 26.432 146.801 25.072C146.801 23.552 147.009 22.336 147.425 21.424C147.841 20.496 148.425 19.824 149.177 19.408C149.929 18.976 150.817 18.76 151.841 18.76C153.441 18.76 154.649 19.208 155.465 20.104C156.281 20.984 156.689 22.408 156.689 24.376L156.593 25.792H148.697C148.713 27.04 148.945 27.984 149.393 28.624C149.841 29.264 150.649 29.584 151.817 29.584C152.265 29.584 152.753 29.576 153.281 29.56C153.825 29.528 154.361 29.496 154.889 29.464C155.417 29.432 155.865 29.4 156.233 29.368L156.281 30.832C155.897 30.896 155.425 30.96 154.865 31.024C154.321 31.088 153.761 31.136 153.185 31.168C152.609 31.216 152.081 31.24 151.601 31.24ZM148.697 24.28H154.817C154.817 22.808 154.577 21.784 154.097 21.208C153.633 20.616 152.881 20.32 151.841 20.32C150.833 20.32 150.057 20.624 149.513 21.232C148.969 21.84 148.697 22.856 148.697 24.28ZM159.47 31V19H161.318V20.608C161.622 20.4 162.006 20.176 162.47 19.936C162.934 19.68 163.446 19.44 164.006 19.216C164.566 18.992 165.126 18.832 165.686 18.736V20.632C165.142 20.744 164.59 20.896 164.03 21.088C163.47 21.264 162.95 21.456 162.47 21.664C162.006 21.872 161.622 22.056 161.318 22.216V31H159.47ZM170.287 36.304L171.847 31H170.047L166.663 19H168.535L171.463 29.392H172.279L175.231 19H177.103L172.159 36.304H170.287Z" fill="#FDAC0E"/>
<rect y="21" width="6" height="10" fill="#FDAC0E"/>
<rect x="9" y="18" width="6" height="13" fill="#FDAC0E"/>
<rect x="18" y="14" width="6" height="17" fill="#FDAC0E"/>
</svg>
